<?xml version="1.0" encoding="utf-8"?>
<!-- Generator: Adobe Illustrator 15.1.0, SVG Export Plug-In . SVG Version: 6.00 Build 0)  -->
<!DOCTYPE svg PUBLIC "-//W3C//DTD SVG 1.1//EN" "http://www.w3.org/Graphics/SVG/1.1/DTD/svg11.dtd">
<svg version="1.1" id="Layer_1" xmlns="http://www.w3.org/2000/svg" xmlns:xlink="http://www.w3.org/1999/xlink" x="0px" y="0px"
	 width="612px" height="792px" viewBox="0 0 612 792" enable-background="new 0 0 612 792" xml:space="preserve">
<g>
	<path fill-rule="evenodd" clip-rule="evenodd" fill="#FFFFFF" d="M369.984,332c0,42.661,0,85.322,0,127.984
		c-42.662,0-85.323,0-127.984,0c0.667-42.329-1.333-87.322,1-127.984C285.328,332,327.656,332,369.984,332z M283.995,363.996
		c-6.773,1.226-18.518-2.52-21.997,2c-2.651,7.317,4.877,4.455,5,8.999c3.278,21.718,2.118,47.875,6.999,67.992
		c19.031,1.661,44.961,1.661,63.992,0c4.813-20.517,3.835-46.826,6.999-68.992c2.25-2.416,7.023-2.309,4.999-8.999
		c-5.678-2.322-15.656-0.342-22.997-1c-0.015-5.318,0.627-11.292-2-13.999C311.488,347.277,278.953,341.629,283.995,363.996z"/>
	<path fill-rule="evenodd" clip-rule="evenodd" d="M324.989,349.998c2.627,2.707,1.985,8.68,2,13.999
		c7.341,0.658,17.319-1.322,22.997,1c2.024,6.689-2.749,6.583-4.999,8.999c-3.164,22.166-2.186,48.475-6.999,68.992
		c-19.031,1.661-44.961,1.661-63.992,0c-4.881-20.116-3.721-46.273-6.999-67.992c-0.122-4.544-7.651-1.682-5-8.999
		c3.479-4.52,15.224-0.774,21.997-2C278.953,341.629,311.488,347.277,324.989,349.998z M289.994,363.996c10.665,0,21.33,0,31.996,0
		c-0.271-3.395,0.773-8.106-1-9.999C311.512,354.272,285.146,346.085,289.994,363.996z M284.995,382.994
		c0.948,5.705,1.639,14.057,2,21.998c0.382,8.409-2.072,19.58,4,22.997c3.613-6.702,0.523-20.502,0-30.996
		c-0.318-6.392,2.272-14.257-3-16.998c-1,0-2,0-3,0C284.995,380.994,284.995,381.994,284.995,382.994z M302.992,379.994c0,1,0,2,0,3
		c0,6.714,0,15.45,0,23.997c0,7.345-3.128,19.491,4,20.998c4.63-12.034,0.692-32.637,1.999-47.994
		C306.992,379.994,304.992,379.994,302.992,379.994z M321.99,379.994c0,1,0,2,0,3c-1.503,9.011-1.86,24.602-2,33.996
		c-0.056,3.718-4.064,11.129,2,10.999c5.875-11.789,2.131-33.198,4.999-47.994C325.323,379.994,323.656,379.994,321.99,379.994z"/>
	<path fill-rule="evenodd" clip-rule="evenodd" fill="#FFFFFF" d="M320.99,353.997c1.773,1.893,0.729,6.604,1,9.999
		c-10.666,0-21.331,0-31.996,0C285.146,346.085,311.512,354.272,320.99,353.997z"/>
	<path fill-rule="evenodd" clip-rule="evenodd" fill="#FFFFFF" d="M284.995,379.994c1,0,2,0,3,0c5.272,2.741,2.681,10.606,3,16.998
		c0.523,10.494,3.613,24.294,0,30.996c-6.072-3.417-3.617-14.588-4-22.997c-0.36-7.94-1.051-16.292-2-21.998
		C284.995,381.994,284.995,380.994,284.995,379.994z"/>
	<path fill-rule="evenodd" clip-rule="evenodd" fill="#FFFFFF" d="M308.991,379.994c-1.307,15.357,2.631,35.96-1.999,47.994
		c-7.128-1.507-4-13.653-4-20.998c0-8.547,0-17.283,0-23.997c0-1,0-2,0-3C304.992,379.994,306.992,379.994,308.991,379.994z"/>
	<path fill-rule="evenodd" clip-rule="evenodd" fill="#FFFFFF" d="M326.989,379.994c-2.868,14.796,0.876,36.205-4.999,47.994
		c-6.064,0.13-2.056-7.281-2-10.999c0.14-9.394,0.497-24.985,2-33.996c0-1,0-2,0-3C323.656,379.994,325.323,379.994,326.989,379.994
		z"/>
</g>
</svg>
